<?xml version="1.0" encoding="utf-8"?>
<!-- Generator: Adobe Illustrator 25.4.1, SVG Export Plug-In . SVG Version: 6.00 Build 0)  -->
<svg version="1.1" id="Layer_1" xmlns="http://www.w3.org/2000/svg" xmlns:xlink="http://www.w3.org/1999/xlink" x="0px" y="0px"
     viewBox="0 0 600 600" style="enable-background:new 0 0 600 600;" xml:space="preserve">
<style type="text/css">
	.st0{fill:url(#SVGID_1_);}
</style>
	<linearGradient id="SVGID_1_" gradientUnits="userSpaceOnUse" x1="0" y1="300" x2="600" y2="300">
	<stop  offset="0" style="stop-color:#6D28D9"/>
		<stop  offset="1" style="stop-color:#C026D3"/>
</linearGradient>
	<path class="st0" d="M462,0H138C61.8,0,0,61.8,0,138v324c0,76.2,61.8,138,138,138h324c76.2,0,138-61.8,138-138V138
	C600,61.8,538.2,0,462,0z M490.7,348.6c11.4,0,20.6,9.2,20.6,20.6v46.2c0,11.4-9.2,20.6-20.6,20.6H299.9
	c-22.7,0-41.4-17.4-43.5-39.6h-0.2v-4.1v0v-78.8l-99.8,99.8c-8,8-21.1,8-29.1,0l-32.6-32.6c-8-8-8-21.1,0-29.1l100.2-100.2h-85.6
	c-11.4,0-20.6-9.2-20.6-20.6v-46.2c0-11.4,9.2-20.6,20.6-20.6h190.4c14.5,0,27.4,7.1,35.3,18c5,6.7,7.8,14.5,8.5,22.4h0.2V287
	l100-100c8-8,21.1-8,29.1,0l32.6,32.6c8,8,8,21.1,0,29.1l-99.9,99.9H490.7z"/>
</svg>