<?xml version="1.0" encoding="utf-8"?>
<!-- Generator: Adobe Illustrator 25.4.1, SVG Export Plug-In . SVG Version: 6.00 Build 0)  -->
<svg version="1.1" id="Layer_1" xmlns="http://www.w3.org/2000/svg" xmlns:xlink="http://www.w3.org/1999/xlink" x="0px" y="0px"
	 viewBox="0 0 600 600" style="enable-background:new 0 0 600 600;" xml:space="preserve">
<style type="text/css">
	.st0{fill:#FFFFFF;stroke:url(#SVGID_1_);stroke-width:10;}
	.st1{fill:#FBFBFC;}
	.st2{fill:none;stroke:url(#SVGID_00000131334915496882544080000010219433331421723027_);stroke-width:8;stroke-linecap:round;}
	.st3{fill:#6F1DD6;}
	.st4{fill:#7A27DE;}
	.st5{fill:#8530E5;}
	.st6{fill:#903AF0;}
	.st7{fill:#9944F0;}
	.st8{fill:#A54FF0;}
	.st9{fill:#B56AF2;}
	.st10{fill:#23384E;}
	.st11{font-family:'Inter-Regular';}
	.st12{font-size:96px;}
	.st13{letter-spacing:-1;}
</style>
<g id="Layer_1_00000183950413759877977880000015038829730331910840_">
	
		<linearGradient id="SVGID_1_" gradientUnits="userSpaceOnUse" x1="4.4945" y1="-1157.5294" x2="595.5055" y2="-562.4705" gradientTransform="matrix(1 0 0 1 0 1162)">
		<stop  offset="0" style="stop-color:#D8C7F5"/>
		<stop  offset="0.6" style="stop-color:#A463F2"/>
		<stop  offset="1" style="stop-color:#6F1DD6"/>
	</linearGradient>
	<path class="st0" d="M152,9.8h296c79.1,0,143.2,64.1,143.2,143.2v298c0,79.1-64.1,143.2-143.2,143.2H152
		C72.9,594.2,8.8,530.1,8.8,451V153C8.8,73.9,72.9,9.8,152,9.8z"/>
	<path class="st1" d="M152,6h296c79.5,0,144,64.5,144,144v298c0,79.5-64.5,144-144,144H152C72.5,592,8,527.5,8,448V150
		C8,70.5,72.5,6,152,6z"/>
	
		<linearGradient id="SVGID_00000137846045600099940730000017062727921114584463_" gradientUnits="userSpaceOnUse" x1="54" y1="-883" x2="544" y2="-883" gradientTransform="matrix(1 0 0 1 0 1162)">
		<stop  offset="0" style="stop-color:#6F1DD6"/>
		<stop  offset="1" style="stop-color:#B56AF2"/>
	</linearGradient>
	
		<line style="fill:none;stroke:url(#SVGID_00000137846045600099940730000017062727921114584463_);stroke-width:8;stroke-linecap:round;" x1="76" y1="279" x2="522" y2="279"/>
	<circle class="st3" cx="76" cy="279" r="22"/>
	<circle class="st4" cx="150" cy="279" r="22"/>
	<circle class="st5" cx="224" cy="279" r="22"/>
	<circle class="st6" cx="298" cy="279" r="22"/>
	<circle class="st7" cx="372" cy="279" r="22"/>
	<circle class="st8" cx="446" cy="279" r="22"/>
	<circle class="st9" cx="522" cy="279" r="22"/>
	<text transform="matrix(1 0 0 1 64 434)" class="st10 st11 st12 st13">ImproTrack</text>
</g>
</svg>
